<?xml version="1.0" standalone="no"?>
<!DOCTYPE svg PUBLIC "-//W3C//DTD SVG 1.1//EN"
"http://www.w3.org/Graphics/SVG/1.1/DTD/svg11.dtd">
<svg height="600" version="1.1" width="1000" xmlns="http://www.w3.org/2000/svg"><g><rect fill="#f9f9f9" height="600" width="1000" x="0" y="0" /><g transform="translate(50 50)"><g transform="translate(92 0)"><text fill="#333" font-family="Monaco" font-size="16" x="0" y="0">Total COVID-19 Cases in Ontario</text></g><g transform="translate(0 20)"><g transform="translate(92 0)"><g class="axis bottom"><text dy="1em" fill="#666" font-family="Monaco" text-anchor="middle" transform="" x="404.0" y="466.0">Days Since Jan 26, 2020</text><g class="tick"><line stroke="#eee" stroke-width="1" x1="53.86666666666666666666666667" x2="53.86666666666666666666666667" y1="0" y2="418.0" /><text dy="1em" fill="#9c9c9c" font-family="Monaco" text-anchor="middle" x="53.86666666666666666666666667" y="422.0">10</text></g><g class="tick"><line stroke="#eee" stroke-width="1" x1="107.7333333333333333333333333" x2="107.7333333333333333333333333" y1="0" y2="418.0" /><text dy="1em" fill="#9c9c9c" font-family="Monaco" text-anchor="middle" x="107.7333333333333333333333333" y="422.0">20</text></g><g class="tick"><line stroke="#eee" stroke-width="1" x1="161.6" x2="161.6" y1="0" y2="418.0" /><text dy="1em" fill="#9c9c9c" font-family="Monaco" text-anchor="middle" x="161.6" y="422.0">30</text></g><g class="tick"><line stroke="#eee" stroke-width="1" x1="215.4666666666666666666666667" x2="215.4666666666666666666666667" y1="0" y2="418.0" /><text dy="1em" fill="#9c9c9c" font-family="Monaco" text-anchor="middle" x="215.4666666666666666666666667" y="422.0">40</text></g><g class="tick"><line stroke="#eee" stroke-width="1" x1="269.3333333333333333333333333" x2="269.3333333333333333333333333" y1="0" y2="418.0" /><text dy="1em" fill="#9c9c9c" font-family="Monaco" text-anchor="middle" x="269.3333333333333333333333333" y="422.0">50</text></g><g class="tick"><line stroke="#eee" stroke-width="1" x1="323.2" x2="323.2" y1="0" y2="418.0" /><text dy="1em" fill="#9c9c9c" font-family="Monaco" text-anchor="middle" x="323.2" y="422.0">60</text></g><g class="tick"><line stroke="#eee" stroke-width="1" x1="377.0666666666666666666666667" x2="377.0666666666666666666666667" y1="0" y2="418.0" /><text dy="1em" fill="#9c9c9c" font-family="Monaco" text-anchor="middle" x="377.0666666666666666666666667" y="422.0">70</text></g><g class="tick"><line stroke="#eee" stroke-width="1" x1="430.9333333333333333333333333" x2="430.9333333333333333333333333" y1="0" y2="418.0" /><text dy="1em" fill="#9c9c9c" font-family="Monaco" text-anchor="middle" x="430.9333333333333333333333333" y="422.0">80</text></g><g class="tick"><line stroke="#eee" stroke-width="1" x1="484.8" x2="484.8" y1="0" y2="418.0" /><text dy="1em" fill="#9c9c9c" font-family="Monaco" text-anchor="middle" x="484.8" y="422.0">90</text></g><g class="tick"><line stroke="#eee" stroke-width="1" x1="538.6666666666666666666666667" x2="538.6666666666666666666666667" y1="0" y2="418.0" /><text dy="1em" fill="#9c9c9c" font-family="Monaco" text-anchor="middle" x="538.6666666666666666666666667" y="422.0">100</text></g><g class="tick"><line stroke="#eee" stroke-width="1" x1="592.5333333333333333333333333" x2="592.5333333333333333333333333" y1="0" y2="418.0" /><text dy="1em" fill="#9c9c9c" font-family="Monaco" text-anchor="middle" x="592.5333333333333333333333333" y="422.0">110</text></g><g class="tick"><line stroke="#eee" stroke-width="1" x1="646.4" x2="646.4" y1="0" y2="418.0" /><text dy="1em" fill="#9c9c9c" font-family="Monaco" text-anchor="middle" x="646.4" y="422.0">120</text></g><g class="tick"><line stroke="#eee" stroke-width="1" x1="700.2666666666666666666666667" x2="700.2666666666666666666666667" y1="0" y2="418.0" /><text dy="1em" fill="#9c9c9c" font-family="Monaco" text-anchor="middle" x="700.2666666666666666666666667" y="422.0">130</text></g><g class="tick"><line stroke="#eee" stroke-width="1" x1="754.1333333333333333333333333" x2="754.1333333333333333333333333" y1="0" y2="418.0" /><text dy="1em" fill="#9c9c9c" font-family="Monaco" text-anchor="middle" x="754.1333333333333333333333333" y="422.0">140</text></g><g class="tick"><line stroke="#a8a8a8" stroke-width="1" x1="0" x2="0" y1="0" y2="418.0" /><text dy="1em" fill="#9c9c9c" font-family="Monaco" text-anchor="middle" x="0" y="422.0">0</text></g></g><g class="axis left"><text dy="" fill="#666" font-family="Monaco" text-anchor="middle" transform="rotate(270 -70 207)" x="-70" y="207.0">Number of Cases</text><g class="tick"><line stroke="#eee" stroke-width="1" x1="-4" x2="808.0" y1="310.50" y2="310.50" /><text dy="0.32em" fill="#9c9c9c" font-family="Monaco" text-anchor="end" x="-8" y="310.50">10000</text></g><g class="tick"><line stroke="#eee" stroke-width="1" x1="-4" x2="808.0" y1="207.0" y2="207.0" /><text dy="0.32em" fill="#9c9c9c" font-family="Monaco" text-anchor="end" x="-8" y="207.0">20000</text></g><g class="tick"><line stroke="#eee" stroke-width="1" x1="-4" x2="808.0" y1="103.50" y2="103.50" /><text dy="0.32em" fill="#9c9c9c" font-family="Monaco" text-anchor="end" x="-8" y="103.50">30000</text></g><g class="tick"><line stroke="#eee" stroke-width="1" x1="-4" x2="808.0" y1="0" y2="0" /><text dy="0.32em" fill="#9c9c9c" font-family="Monaco" text-anchor="end" x="-8" y="0">40000</text></g><g class="tick"><line stroke="#a8a8a8" stroke-width="1" x1="-4" x2="808.0" y1="414" y2="414" /><text dy="0.32em" fill="#9c9c9c" font-family="Monaco" text-anchor="end" x="-8" y="414">0</text></g></g><g><g class="series lines"><path d="M 16.16 413.989650 L 21.54666666666666666666666667 413.97930 L 26.93333333333333333333333333 413.97930 L 32.32 413.968950 L 37.70666666666666666666666667 413.968950 L 43.09333333333333333333333333 413.968950 L 48.48 413.968950 L 53.86666666666666666666666667 413.968950 L 59.25333333333333333333333333 413.968950 L 64.64 413.968950 L 70.02666666666666666666666667 413.968950 L 75.41333333333333333333333333 413.968950 L 80.8 413.968950 L 86.18666666666666666666666669 413.968950 L 91.57333333333333333333333331 413.968950 L 96.96 413.968950 L 102.3466666666666666666666667 413.968950 L 107.7333333333333333333333333 413.968950 L 113.12 413.9586 L 118.5066666666666666666666667 413.9586 L 123.8933333333333333333333333 413.9586 L 129.28 413.948250 L 134.6666666666666666666666667 413.93790 L 140.0533333333333333333333333 413.81370 L 145.44 413.7930 L 150.8266666666666666666666667 413.7930 L 156.2133333333333333333333333 413.77230 L 161.6 413.73090 L 166.9866666666666666666666667 413.7102 L 172.3733333333333333333333333 413.699850 L 177.76 413.637750 L 183.1466666666666666666666667 413.6274 L 188.5333333333333333333333333 413.56530 L 193.92 413.389350 L 199.3066666666666666666666667 413.182350 L 204.6933333333333333333333333 412.933950 L 210.08 412.499250 L 215.4666666666666666666666667 412.168050 L 220.8533333333333333333333333 412.043850 L 226.24 411.78510 L 231.6266666666666666666666667 411.32970 L 237.0133333333333333333333333 410.70870 L 242.4 410.098050 L 247.7866666666666666666666667 409.601250 L 253.1733333333333333333333333 408.793950 L 258.56 407.9142 L 263.9466666666666666666666667 406.8792 L 269.3333333333333333333333333 405.11970 L 274.72 403.722450 L 280.1066666666666666666666667 402.1596 L 285.4933333333333333333333333 399.975750 L 290.88 396.34290 L 296.2666666666666666666666667 393.65190 L 301.6533333333333333333333333 389.2428 L 307.04 385.092450 L 312.4266666666666666666666667 380.310750 L 317.8133333333333333333333333 376.42950 L 323.2 372.20670 L 328.5866666666666666666666667 369.008550 L 333.9733333333333333333333333 365.08590 L 339.36 359.3934 L 344.7466666666666666666666667 354.394350 L 350.1333333333333333333333333 349.447050 L 355.52 345.1932 L 360.9066666666666666666666667 341.042850 L 366.2933333333333333333333333 336.68550 L 371.68 331.686450 L 377.0666666666666666666666667 326.573550 L 382.4533333333333333333333333 321.253650 L 387.84 315.416250 L 393.2266666666666666666666667 310.39650 L 398.6133333333333333333333333 304.51770 L 404.0 298.2456 L 409.3866666666666666666666667 292.542750 L 414.7733333333333333333333333 287.264250 L 420.16 280.702350 L 425.5466666666666666666666667 274.078350 L 430.9333333333333333333333333 269.151750 L 436.32 264.6288 L 441.7066666666666666666666667 260.2404 L 447.0933333333333333333333333 254.806650 L 452.48 251.2152 L 457.8666666666666666666666667 246.464550 L 463.2533333333333333333333333 242.1072 L 468.64 236.818350 L 474.0266666666666666666666667 232.326450 L 479.4133333333333333333333333 228.496950 L 484.8 224.49150 L 490.1866666666666666666666667 220.22730 L 495.5733333333333333333333333 216.097650 L 500.96 211.16070 L 506.3466666666666666666666667 207.5796 L 511.7333333333333333333333333 204.53670 L 517.12 201.34890 L 522.5066666666666666666666667 197.612550 L 527.8933333333333333333333333 194.2074 L 533.28 190.636650 L 538.6666666666666666666666667 187.10730 L 544.0533333333333333333333333 183.060450 L 549.44 179.541450 L 554.8266666666666666666666667 176.395050 L 560.2133333333333333333333333 171.9756 L 565.6 167.93910 L 570.9866666666666666666666667 163.664550 L 576.3733333333333333333333333 159.1002 L 581.76 154.836 L 587.1466666666666666666666667 150.0750 L 592.5333333333333333333333333 145.8936 L 597.92 142.923150 L 603.3066666666666666666666667 139.900950 L 608.6933333333333333333333333 135.93690 L 614.08 132.37650 L 619.4666666666666666666666667 129.033450 L 624.8533333333333333333333333 125.659350 L 630.24 121.477950 L 635.6266666666666666666666667 116.861850 L 641.0133333333333333333333333 113.363550 L 646.4 109.678950 L 651.7866666666666666666666667 106.118550 L 657.1733333333333333333333333 101.40930 L 662.56 97.114050 L 667.9466666666666666666666667 94.5990 L 673.3333333333333333333333333 92.21850 L 678.72 89.620650 L 684.1066666666666666666666667 87.5196 L 689.4933333333333333333333333 85.63590 L 694.88 82.8828 L 700.2666666666666666666666667 80.843850 L 705.6533333333333333333333333 78.97050 L 711.04 77.06610 L 716.4266666666666666666666667 75.0996 L 721.8133333333333333333333333 73.309050 L 727.2 71.466750" fill="none" stroke="#e41a1c" stroke-width="2" /></g></g></g></g></g></g></svg>